HIERARCHY
ROOT pelvis
{
  OFFSET 0 100 0
  CHANNELS 6 Xposition Yposition Zposition Zrotation Xrotation Yrotation
  JOINT pelvis_right_femur
  {
    OFFSET -10.78128 -3.44521 -0.5502486
    CHANNELS 3 Zrotation Xrotation Yrotation
    JOINT right_femur_tibia
    {
      OFFSET -0.8047443 -44.0398 -0.1307829
      CHANNELS 3 Zrotation Xrotation Yrotation
      JOINT right_tibia_foot
      {
        OFFSET 3.006224 -47.83518 -5
        CHANNELS 3 Zrotation Xrotation Yrotation
        End Site
        {
          OFFSET 0 -5 15
        }
      }
    }
  }
  JOINT pelvis_left_femur
  {
    OFFSET 10.78128 -3.44521 -0.5502486
    CHANNELS 3 Zrotation Xrotation Yrotation
    JOINT left_femur_tibia
    {
      OFFSET 0.8047443 -44.0398 -0.1307829
      CHANNELS 3 Zrotation Xrotation Yrotation
      JOINT left_tibia_foot
      {
        OFFSET -4.370144 -48.10324 -4.275266
        CHANNELS 3 Zrotation Xrotation Yrotation
        End Site
        {
          OFFSET 0 -5 15
        }
      }
    }
  }
  JOINT pelvis_spine1
  {
    OFFSET 0 6.468898 -3.129235
    CHANNELS 3 Zrotation Xrotation Yrotation
    JOINT spine1
    {
      OFFSET 0 23.15396 4.99043
      CHANNELS 3 Zrotation Xrotation Yrotation
      JOINT spine2
      {
        OFFSET 0 20.79997 -5.064912
        CHANNELS 3 Zrotation Xrotation Yrotation
        JOINT neck
        {
          OFFSET 0 14.38658 9.616178
          CHANNELS 3 Zrotation Xrotation Yrotation
          End Site
          {
            OFFSET 0 20 0
          }
        }
      }
      JOINT right_manubrium
      {
        OFFSET -5.722621 16.35077 3.967754
        CHANNELS 3 Zrotation Xrotation Yrotation
        JOINT right_clavicle
        {
          OFFSET -13.16364 1.694482 -4.693211
          CHANNELS 3 Zrotation Xrotation Yrotation
          JOINT right_humerus
          {
            OFFSET -28.5034 -0.3100689 -2.792744
            CHANNELS 3 Zrotation Xrotation Yrotation
            JOINT right_radius
            {
              OFFSET -25.15693 0.02248979 -1.271978
              CHANNELS 3 Zrotation Xrotation Yrotation
              End Site
              {
                OFFSET -15 0 0
              }
            }
          }
        }
      }
      JOINT left_manubrium
      {
        OFFSET 5.722621 16.35077 3.967754
        CHANNELS 3 Zrotation Xrotation Yrotation
        JOINT left_clavicle
        {
          OFFSET 13.16364 1.694482 -4.693211
          CHANNELS 3 Zrotation Xrotation Yrotation
          JOINT left_humerus
          {
            OFFSET 29.39168 -1.063119 -2.237045
            CHANNELS 3 Zrotation Xrotation Yrotation
            JOINT left_radius
            {
              OFFSET 24.59957 -0.9528479 0.9047498
              CHANNELS 3 Zrotation Xrotation Yrotation
              End Site
              {
                OFFSET 15 -0 -0
              }
            }
          }
        }
      }
    }
  }
}
MOTION
Frames: 13
Frame Time: 0.0416666666667
-927.4415 100.5468 2536.781 -5.951824 -4.171729 -65.60906 -0.8992209 21.45509 -0.3798744 -0 32.1397 -0 -12.41012 -0.08536567 1.856432 -3.340122 -15.89829 -11.20338 -0 13.52152 -0 -3.310776 -6.734974 20.88645 -1.235592 -2.633597 8.185302 0.1305418 13.73496 -5.765118 -1.133637 21.18445 6.107878 5.89159 -15.48879 2.257645 1.845008 -26.93698 12.88514 84.51854 25.04732 -10.75044 -0 0 25.87711 -21.89404 9.072598 8.779028 5.09391 -24.61636 -8.183152 -95.89838 7.257516 35.00743 0 0 -0.2442372 13.11826 14.15637 -4.432284
-933.1358 101.5199 2540.672 -6.48393 -5.053829 -65.46741 -1.871013 19.31601 -0.528633 -0 40.81969 -0 -14.18728 7.263038 3.179332 -4.925919 -12.26266 -12.70389 -0 16.16349 -0 -2.35368 -7.930207 21.47451 -1.206079 -2.452267 7.969132 0.05731822 14.08325 -6.074483 -1.107246 21.22533 6.078393 6.434964 -14.94364 1.729262 2.467639 -25.93166 12.98233 84.70368 25.05678 -12.11254 -0 0 24.85634 -21.64027 9.09899 7.771732 5.459989 -25.53373 -8.727459 -95.18798 7.013257 32.59227 0 0 -1.505329 13.79593 14.1918 -5.423138
-938.5215 102.9856 2544.313 -7.002272 -5.461999 -64.96126 -1.926366 14.6677 -0.7209493 -0 48.9137 -0 -15.71669 13.63049 4.191274 -5.668178 -8.320928 -13.02149 -0 17.85835 -0 -1.039188 -9.109166 21.41367 -1.142181 -2.217401 7.682484 -0.0387382 14.42098 -6.418111 -1.050353 21.21488 6.0134 7.017354 -14.41067 1.146137 3.034326 -24.73894 12.97836 85.02972 25.02076 -13.73544 -0 0 23.63392 -21.36276 9.168673 6.679624 5.926276 -26.54145 -9.318919 -94.20531 6.691291 29.59035 0 0 -3.479263 14.52 14.04706 -6.48222
-943.4467 104.6011 2547.641 -7.499541 -5.360454 -64.21964 -1.236527 8.116959 -0.8668718 -0 53.78612 -0 -16.33985 17.09389 4.289898 -5.606494 -4.307591 -12.53677 -0 17.90272 -0 0.09707477 -10.35246 20.88108 -1.038013 -1.942546 7.331986 -0.1743609 14.67603 -6.737997 -0.9464788 21.15333 5.914988 7.548443 -14.01265 0.6154251 3.382013 -23.43285 12.81751 85.58344 24.96694 -15.51219 -0 0 22.20039 -21.14784 9.286481 5.653842 6.473673 -27.50691 -9.875361 -92.9391 6.329096 26.15235 0 0 -6.314321 15.18507 13.66832 -7.484177
-947.9025 105.9273 2550.669 -7.959432 -5.009343 -63.45676 -0.3776359 1.096017 -1.014621 -0 53.52391 -0 -15.89186 16.86481 3.384313 -5.122362 -0.3626489 -11.98311 -0 16.47436 -0 0.5827752 -11.77042 20.1476 -0.8979772 -1.669323 6.952355 -0.3562238 14.78889 -6.974025 -0.7866685 21.06636 5.788589 7.915937 -13.85594 0.2615833 3.372711 -22.13988 12.49423 86.42988 24.95159 -17.28358 -0 0 20.5666 -21.08081 9.442118 4.865168 7.035805 -28.28735 -10.30741 -91.44502 5.996349 22.60977 0 0 -9.96527 15.66434 13.09416 -8.276338
-952.0093 106.6471 2553.45 -8.209722 -4.703672 -62.83885 0.1520099 -5.172794 -1.465638 -0 48.3287 -0 -14.84247 13.92493 2.093177 -4.686206 3.342114 -11.7476 -0 14.43059 -0 0.3843855 -13.4514 19.30275 -0.738964 -1.454455 6.59365 -0.5652464 14.75252 -7.103712 -0.5789488 20.99352 5.642406 8.046691 -13.96478 0.1563948 2.987924 -20.99316 12.07157 87.55153 25.0108 -18.9067 -0 0 18.79696 -21.18248 9.60768 4.4071 7.522347 -28.81197 -10.56458 -89.8533 5.766587 19.35243 0 0 -14.11266 15.88067 12.46391 -8.754624
-955.9385 106.6793 2556.048 -8.035534 -4.517837 -62.41444 0.2785267 -10.32847 -2.387896 -0 40.16134 -0 -13.62451 10.13546 1.022927 -4.553874 6.575757 -11.68306 -0 12.5932 -0 -0.1123929 -15.36421 18.3446 -0.5804079 -1.334049 6.294203 -0.7617464 14.61488 -7.150798 -0.3466063 20.96337 5.485947 7.942929 -14.27878 0.2841996 2.33367 -20.08606 11.6461 88.83819 25.11783 -20.29403 -0 0 17.02299 -21.39509 9.749433 4.256247 7.861325 -29.1028 -10.65549 -88.33108 5.683224 16.66957 0 0 -18.25596 15.84452 11.93601 -8.907421
-959.8462 106.1216 2558.537 -7.407463 -4.356239 -62.15181 0.2309911 -14.58021 -3.582834 -0 31.27655 -0 -12.42092 6.954194 0.3617611 -4.707497 9.195533 -11.51422 -0 11.3997 -0 -0.4546811 -17.30691 17.35989 -0.4343419 -1.301659 6.0652 -0.9082214 14.44681 -7.156632 -0.1170214 20.98385 5.330414 7.664229 -14.7059 0.5727797 1.565348 -19.45809 11.30045 90.13589 25.20595 -21.39562 -0 0 15.40555 -21.6314 9.843658 4.319325 8.020658 -29.22366 -10.62886 -87.02843 5.749858 14.69087 0 0 -21.89335 15.63407 11.60927 -8.806503
-963.8555 105.1388 2560.989 -6.483439 -4.127646 -61.99798 0.2381079 -18.20147 -4.743472 -0 23.12373 -0 -11.35058 4.959179 0.04015999 -5.004422 11.23589 -11.12859 -0 10.99999 -0 -0.4282992 -19.02875 16.4667 -0.3041259 -1.319656 5.89814 -0.9877297 14.30807 -7.153185 0.08768483 21.04587 5.185801 7.291875 -15.16164 0.9349099 0.8198593 -19.09997 11.0769 91.30406 25.2206 -22.18674 -0 0 14.0782 -21.82365 9.885041 4.493071 8.008526 -29.23428 -10.54483 -86.03707 5.936127 13.40876 0 0 -24.68154 15.34687 11.49925 -8.559746
-968.0672 103.8991 2563.463 -5.459123 -3.803099 -61.90388 0.4223115 -21.32441 -5.674789 -0 16.27101 -0 -10.52335 4.131822 -0.06592478 -5.311073 12.83539 -10.54755 -0 11.46754 -0 -0.06779985 -20.3377 15.71072 -0.1884783 -1.346774 5.78224 -1.007669 14.23045 -7.154507 0.2541 21.13028 5.056355 6.902076 -15.57911 1.291713 0.1864931 -18.96661 10.97469 92.25041 25.14868 -22.67642 -0 0 13.11272 -21.94209 9.885978 4.696763 7.863022 -29.17784 -10.45447 -85.37745 6.190245 12.72944 0 0 -26.50926 15.05741 11.55653 -8.257693
-972.5707 102.5653 2566.003 -4.489925 -3.385186 -61.83196 0.8544046 -23.92445 -6.267837 -0 10.89206 -0 -10.02654 4.231705 -0.05987342 -5.534909 14.12022 -9.835155 -0 12.94301 -0 0.4711751 -21.07656 15.06811 -0.0855027 -1.355576 5.713304 -0.9889508 14.22081 -7.160938 0.3763508 21.21688 4.941181 6.550634 -15.91114 1.585702 -0.2910804 -19.00131 10.96895 92.93353 25.01264 -22.8984 -0 0 12.52514 -21.9872 9.867233 4.8819 7.631269 -29.08153 -10.3907 -85.0225 6.457673 12.53743 0 0 -27.4352 14.80498 11.70946 -7.953696
-977.4392 101.3072 2568.639 -3.699843 -2.881184 -61.76449 1.605125 -25.83298 -6.417413 -0 7.155361 -0 -9.921575 4.933102 -0.02618138 -5.606918 15.13429 -9.067909 -0 15.68462 -0 0.9896889 -21.05928 14.48817 0.006391929 -1.333117 5.693223 -0.9518484 14.27462 -7.167303 0.4527809 21.29068 4.836686 6.268911 -16.12907 1.783068 -0.5984738 -19.16024 11.03411 93.34402 24.84668 -22.88628 -0 0 12.30656 -21.97085 9.8475 5.027626 7.348301 -28.95882 -10.37027 -84.93465 6.696104 12.74871 0 0 -27.56574 14.60238 11.90057 -7.669808
-982.7095 100.3115 2571.378 -3.200028 -2.300289 -61.71487 2.736644 -26.75877 -6.002245 -0 5.329125 -0 -10.22384 5.79605 -0.05188083 -5.468498 15.7932 -8.337145 -0 20.03983 -0 1.273084 -20.05448 13.92434 0.08933911 -1.275925 5.728551 -0.9085495 14.38642 -7.168715 0.4828627 21.34248 4.736945 6.067349 -16.21721 1.866915 -0.7357067 -19.4246 11.15524 93.48437 24.67686 -22.65748 -0 0 12.45114 -21.90184 9.838984 5.131656 7.027829 -28.81281 -10.39982 -85.08961 6.880284 13.33509 0 0 -26.97597 14.44425 12.09806 -7.401629
